<?xml version="1.0" standalone="no"?>
<!DOCTYPE svg PUBLIC "-//W3C//DTD SVG 20010904//EN"
 "http://www.w3.org/TR/2001/REC-SVG-20010904/DTD/svg10.dtd">
<svg version="1.0" xmlns="http://www.w3.org/2000/svg"
 width="904.000000pt" height="904.000000pt" viewBox="0 0 904.000000 904.000000"
 preserveAspectRatio="xMidYMid meet">

<g transform="translate(0.000000,904.000000) scale(0.100000,-0.100000)"
fill="#000000" stroke="none">
<path d="M3677 8283 c-4 -3 -7 -71 -7 -150 0 -78 -1 -144 -2 -144 -2 -1 -50
-5 -108 -10 -58 -5 -130 -11 -160 -14 l-55 -5 -45 65 c-25 36 -53 75 -62 87
-10 12 -18 24 -18 28 0 3 -20 27 -44 53 -31 34 -51 47 -70 47 -26 0 -251 -71
-288 -91 -20 -11 -25 -86 -8 -117 5 -9 16 -35 25 -57 9 -22 25 -58 35 -80 38
-82 37 -89 -17 -120 -65 -37 -183 -115 -208 -137 -20 -16 -22 -16 -47 0 -54
36 -85 58 -144 103 -133 102 -160 104 -252 15 -37 -35 -86 -81 -109 -101 -40
-36 -43 -42 -43 -89 1 -56 8 -67 157 -225 34 -36 63 -71 63 -78 0 -7 -20 -43
-44 -81 -25 -38 -59 -99 -77 -135 -17 -37 -38 -72 -46 -79 -15 -12 -80 0 -234
43 -76 22 -148 24 -171 7 -9 -7 -33 -59 -52 -116 -19 -56 -40 -112 -47 -123
-6 -12 -13 -47 -15 -79 -6 -71 -11 -67 203 -174 83 -42 154 -80 157 -85 3 -5
1 -44 -5 -87 -5 -44 -10 -122 -10 -174 1 -52 -2 -100 -7 -107 -4 -6 -48 -16
-97 -22 -128 -15 -237 -36 -264 -51 l-24 -12 7 -179 c4 -99 11 -189 17 -202 6
-12 22 -31 37 -42 23 -17 52 -21 217 -30 178 -9 190 -11 193 -30 7 -48 56
-201 71 -220 5 -5 18 -35 29 -67 l21 -56 -32 -25 c-18 -13 -43 -30 -56 -37
-13 -7 -49 -32 -80 -57 -31 -24 -71 -55 -88 -69 -27 -21 -33 -33 -33 -64 0
-32 16 -62 89 -172 49 -74 96 -140 105 -147 25 -21 121 -8 196 27 111 51 162
72 178 72 8 0 26 -12 39 -27 13 -16 72 -76 131 -135 97 -99 105 -109 91 -125
-8 -10 -24 -36 -34 -58 -11 -22 -25 -45 -32 -53 -7 -7 -22 -30 -34 -52 -13
-22 -26 -40 -31 -40 -4 0 -8 -24 -8 -53 0 -63 -6 -56 148 -161 158 -106 182
-104 302 20 36 37 80 81 98 97 32 29 33 30 65 13 18 -9 86 -39 152 -65 l120
-49 -1 -53 c-1 -30 -5 -102 -9 -160 l-8 -105 29 -12 c29 -11 156 -35 251 -47
41 -5 59 -3 82 11 17 10 31 23 31 29 0 12 39 113 70 180 10 22 21 48 24 58 5
15 22 17 164 17 l158 0 13 -52 c37 -159 47 -190 64 -205 20 -19 8 -20 237 31
96 22 100 29 100 196 l0 138 58 23 c31 13 90 40 131 61 64 33 76 36 83 23 28
-48 133 -166 154 -171 28 -7 72 19 169 99 72 60 75 64 75 102 0 29 -53 170
-71 190 -19 19 -7 40 66 116 41 43 75 83 75 89 0 5 -20 10 -45 10 -38 0 -54
-7 -102 -44 -69 -53 -217 -139 -328 -190 -182 -85 -441 -133 -660 -122 -66 3
-131 8 -145 11 -14 3 -54 10 -90 16 -155 28 -425 137 -573 232 -29 19 -65 42
-81 52 -96 59 -291 240 -383 355 -132 164 -209 296 -305 520 -6 14 -14 33 -19
42 -5 10 -9 25 -9 34 0 9 -6 30 -14 47 -18 43 -52 159 -68 232 -9 41 -13 147
-13 335 0 228 3 289 19 360 10 47 21 94 25 105 5 11 21 61 37 110 38 119 135
311 208 413 87 121 207 252 281 307 22 17 45 35 50 41 30 32 279 171 360 200
62 22 173 53 255 71 121 26 477 26 565 0 194 -58 431 -189 563 -312 96 -89
241 -257 242 -277 0 -5 16 -8 35 -8 43 0 51 16 35 64 -9 29 -90 161 -122 201
-64 79 -96 114 -177 194 l-96 95 0 145 0 145 -120 68 c-152 87 -165 87 -210 2
-18 -34 -36 -72 -40 -85 -15 -50 -34 -69 -58 -60 -29 11 -141 46 -197 61 -64
17 -75 24 -78 51 -2 13 -7 33 -11 44 -5 11 -14 45 -20 76 -21 100 -31 127 -56
143 -39 26 -319 58 -338 39z m231 -24 c115 -14 124 -25 156 -181 6 -31 15 -60
19 -64 4 -4 7 -20 7 -34 0 -39 10 -45 108 -66 15 -3 36 -9 47 -14 56 -24 156
-52 170 -47 8 4 15 13 15 21 0 8 21 55 46 105 30 61 51 91 62 91 9 0 71 -31
137 -69 l120 -69 0 -145 0 -145 96 -93 c119 -117 141 -143 216 -254 74 -109
99 -165 81 -177 -25 -16 -37 -7 -101 75 -70 89 -193 213 -272 274 -100 78
-333 198 -430 222 -27 7 -61 18 -74 24 -16 8 -101 12 -260 12 -255 -1 -299 -7
-502 -71 -169 -53 -397 -188 -524 -311 -144 -138 -275 -314 -344 -458 -18 -38
-39 -81 -46 -95 -19 -38 -80 -234 -101 -325 -16 -68 -18 -125 -19 -370 0 -203
4 -308 13 -350 17 -76 51 -195 61 -215 5 -9 12 -31 16 -50 4 -19 10 -39 14
-45 4 -5 13 -28 20 -50 28 -84 164 -337 218 -405 6 -8 40 -51 75 -95 255 -324
621 -554 1041 -654 193 -46 575 -34 717 21 14 6 48 16 75 23 106 28 397 184
480 256 26 23 42 30 67 27 l33 -3 -78 -82 -79 -82 16 -33 c44 -98 66 -161 66
-195 0 -35 -6 -42 -75 -98 -41 -33 -91 -69 -109 -80 -33 -19 -35 -19 -54 -2
-11 10 -47 54 -79 98 -32 43 -64 79 -70 79 -7 0 -45 -17 -85 -38 -40 -21 -99
-48 -130 -61 l-58 -23 0 -137 c0 -168 -4 -175 -105 -197 -39 -9 -97 -22 -130
-29 -84 -19 -96 -9 -119 91 -29 127 -39 155 -57 165 -24 12 -286 12 -310 -1
-10 -6 -19 -15 -19 -21 0 -10 -10 -34 -41 -104 -5 -11 -20 -47 -33 -80 -39
-96 -45 -99 -206 -74 -74 11 -146 26 -159 32 -25 13 -25 13 -5 254 6 65 4 73
-12 79 -11 4 -37 15 -59 24 -22 10 -71 30 -110 45 -38 16 -79 34 -90 41 -39
27 -60 16 -156 -82 -99 -100 -132 -124 -173 -124 -21 0 -220 124 -274 170 -23
21 -14 77 25 137 20 32 40 60 45 61 4 2 8 8 8 14 0 6 14 33 30 60 17 26 30 54
30 61 0 7 -41 53 -91 102 -51 50 -107 109 -127 132 -49 60 -61 59 -240 -24
-72 -33 -158 -51 -179 -37 -9 6 -59 72 -110 148 -119 175 -119 176 -17 253 42
32 103 76 135 98 86 59 84 55 64 116 -10 30 -28 74 -40 99 -13 25 -33 79 -45
120 -12 41 -26 82 -30 90 -6 12 -40 17 -166 23 -197 10 -216 13 -245 38 -26
23 -34 68 -45 270 -7 127 -7 127 17 140 23 13 109 28 273 49 43 6 82 12 86 15
4 2 10 78 14 167 4 90 8 179 9 198 l2 35 -123 62 c-67 34 -147 76 -177 93
l-55 31 0 58 c0 31 4 61 9 66 5 6 26 60 46 120 20 61 44 116 53 123 20 16 91
11 167 -11 28 -9 86 -25 130 -36 98 -25 106 -21 155 75 19 38 56 102 83 143
36 55 47 79 40 92 -4 10 -36 48 -70 86 -155 169 -153 165 -153 208 0 38 6 45
96 130 53 50 108 96 121 103 35 19 65 6 183 -80 55 -40 115 -82 133 -92 l33
-19 54 39 c30 21 88 60 130 86 121 76 114 67 95 113 -9 22 -22 54 -30 70 -7
17 -21 48 -30 70 -9 22 -20 48 -25 57 -17 30 -12 86 8 96 48 26 268 93 286 88
24 -6 70 -61 161 -191 l60 -86 65 6 c36 3 103 8 150 11 143 8 130 -8 130 158
0 106 3 146 13 150 13 6 104 0 215 -15z"/>
<path d="M5725 7401 c-71 -21 -195 -69 -212 -84 -23 -18 -14 -22 70 -35 87
-14 208 -66 245 -106 23 -23 60 -91 81 -148 40 -103 214 -85 333 35 37 36 38
39 38 111 0 71 -1 75 -40 122 -26 32 -65 62 -111 87 l-71 37 -136 -1 c-99 0
-153 -5 -197 -18z"/>
<path d="M5415 7103 c-41 -5 -186 -49 -265 -80 -36 -14 -79 -31 -95 -37 -31
-11 -224 -121 -325 -185 -198 -124 -330 -283 -330 -396 0 -46 4 -57 31 -83 59
-58 204 -116 389 -156 143 -31 166 -35 303 -53 78 -10 136 -22 134 -27 -5 -15
-332 -176 -357 -176 -6 0 -28 -11 -48 -25 -34 -23 -130 -61 -136 -54 -2 2 -17
33 -35 69 -42 87 -49 98 -98 157 -54 64 -204 155 -291 177 -88 22 -353 22
-425 0 -139 -42 -176 -57 -274 -111 -339 -188 -544 -569 -472 -878 30 -125
141 -305 217 -353 96 -59 142 -82 213 -106 58 -19 67 -25 44 -26 -16 -1 -48
-7 -70 -14 l-40 -12 33 -17 c30 -17 152 -17 2035 -13 1894 5 2337 11 2293 29
-10 4 -73 12 -138 17 -66 6 -124 13 -130 16 -5 4 -87 11 -181 16 -95 6 -190
11 -212 13 -22 2 -94 7 -160 11 -173 10 -177 13 -75 64 47 23 115 62 152 87
74 48 238 207 238 229 0 8 4 14 8 14 14 0 89 143 118 225 23 68 28 100 32 214
4 133 1 155 -35 258 -19 57 -96 170 -141 210 -61 54 -195 131 -258 149 -115
32 -441 28 -489 -6 -5 -4 -26 -11 -45 -15 -45 -9 -107 -38 -194 -92 -39 -24
-74 -43 -78 -43 -4 0 -8 37 -8 83 0 103 19 161 77 243 35 51 61 72 139 120 52
31 116 63 142 69 30 8 48 18 50 29 3 16 -10 17 -165 14 l-168 -3 -83 -48 c-45
-26 -87 -45 -91 -42 -5 3 -28 33 -51 66 -48 70 -140 186 -194 242 -19 21 -39
44 -43 50 -5 7 -28 29 -53 48 -24 18 -52 41 -62 50 -10 8 -49 32 -88 52 -64
33 -78 37 -143 36 -40 -1 -85 -4 -102 -6z m231 -327 c52 -20 220 -114 391
-219 76 -47 79 -51 56 -84 -36 -54 -46 -88 -51 -189 -4 -91 -1 -111 28 -216
35 -129 36 -123 -30 -213 -16 -22 -39 -60 -51 -85 -12 -25 -30 -56 -40 -70 -9
-14 -23 -56 -30 -95 -16 -88 -23 -312 -11 -340 5 -11 22 -47 37 -80 15 -33 31
-68 36 -77 5 -10 9 -25 9 -33 0 -9 10 -20 23 -26 12 -6 33 -28 47 -51 25 -40
113 -118 134 -118 6 0 4 -5 -4 -10 -9 -6 -351 -10 -891 -10 -493 0 -900 -4
-930 -9 -90 -16 -199 -22 -199 -12 0 5 10 13 23 17 58 18 204 121 276 195 68
69 181 215 181 234 0 7 25 68 41 97 5 10 9 26 9 35 0 10 7 31 15 47 10 18 15
57 15 107 l0 78 88 27 c445 136 790 309 862 431 24 41 28 146 6 168 -24 24
-81 55 -101 55 -12 0 -26 5 -32 11 -12 12 -153 38 -373 69 -227 32 -247 36
-274 54 -35 23 -32 36 17 73 58 44 265 164 307 179 19 7 60 23 90 34 146 57
231 64 326 26z m-1593 -791 c111 -23 219 -82 280 -150 27 -31 65 -97 72 -126
6 -24 1 -28 -67 -61 -40 -20 -84 -39 -98 -43 -14 -4 -71 -29 -126 -56 -98 -47
-134 -73 -121 -86 6 -5 142 25 337 75 106 27 115 21 107 -72 -35 -410 -449
-679 -846 -550 -132 44 -223 110 -280 205 -29 50 -61 180 -61 249 0 73 32 198
70 277 79 160 280 304 485 347 47 9 185 5 248 -9z m2801 0 c130 -28 255 -105
310 -194 67 -106 87 -280 46 -402 -18 -53 -84 -172 -115 -205 -122 -135 -230
-213 -343 -247 -86 -25 -249 -27 -342 -3 -109 27 -221 88 -278 151 -77 84
-121 227 -107 350 13 117 81 273 143 328 20 18 21 18 48 -30 66 -115 196 -283
219 -283 7 0 20 -11 28 -24 19 -28 77 -60 89 -48 5 5 -3 19 -17 32 -14 13 -25
32 -25 42 0 10 -4 18 -10 18 -5 0 -10 5 -10 12 0 6 -7 19 -15 28 -24 26 -162
306 -169 342 -6 33 -6 34 71 72 43 22 110 47 148 57 87 22 236 24 329 4z"/>
<path d="M7222 4641 c-24 -10 -43 -20 -43 -24 1 -4 1 -11 1 -15 0 -5 24 -1 53
9 28 10 52 23 52 30 0 19 -16 19 -63 0z"/>
<path d="M8016 4569 c-40 -48 -56 -95 -56 -168 0 -72 29 -150 68 -184 34 -31
45 -11 19 36 -19 36 -22 57 -22 147 0 89 3 111 22 147 20 38 21 53 2 53 -4 0
-19 -14 -33 -31z"/>
<path d="M8645 4591 c-3 -5 5 -27 17 -48 20 -33 23 -52 23 -138 0 -83 -4 -107
-22 -145 -28 -54 -16 -76 22 -40 35 33 65 120 65 188 0 61 -26 131 -62 170
-23 24 -34 27 -43 13z"/>
<path d="M5380 4564 c0 -8 7 -17 15 -20 12 -5 15 -29 15 -130 0 -104 -2 -124
-15 -124 -8 0 -15 -7 -15 -15 0 -13 17 -15 113 -13 l112 3 3 38 c4 44 -18 52
-36 12 -9 -20 -19 -25 -46 -25 -42 0 -46 12 -46 132 0 95 5 118 26 118 8 0 14
8 14 19 0 16 -9 18 -70 19 -54 0 -70 -3 -70 -14z"/>
<path d="M5710 4563 c-53 -27 -80 -75 -80 -142 0 -105 50 -162 147 -168 44 -3
67 1 93 15 102 56 109 231 10 290 -41 25 -125 27 -170 5z m130 -43 c26 -26 34
-61 27 -125 -8 -75 -30 -105 -77 -105 -60 0 -75 25 -75 125 0 67 4 87 19 104
25 27 79 28 106 1z"/>
<path d="M6035 4568 c-32 -17 -45 -39 -45 -78 0 -41 19 -63 88 -101 53 -29 66
-64 33 -90 -33 -27 -81 -5 -81 37 0 17 -6 24 -19 24 -15 0 -20 -9 -23 -41 -5
-53 9 -63 93 -63 61 -1 71 2 95 26 20 20 27 36 27 67 0 49 -9 60 -66 89 -24
12 -52 31 -62 42 -26 29 -9 55 36 55 30 0 34 -4 37 -27 2 -20 9 -28 23 -28 16
0 19 7 19 44 0 41 -2 44 -31 50 -47 9 -101 7 -124 -6z"/>
<path d="M6320 4566 c0 -6 9 -19 20 -29 18 -15 20 -29 20 -141 0 -102 -4 -133
-20 -171 -16 -38 -17 -47 -5 -51 19 -8 31 1 66 48 29 41 29 42 29 180 0 116 2
138 15 138 8 0 15 9 15 19 0 17 -8 19 -70 19 -47 0 -70 -4 -70 -12z"/>
<path d="M6490 4564 c0 -8 7 -17 15 -20 12 -5 15 -27 15 -108 0 -82 4 -107 20
-133 29 -48 109 -66 173 -40 55 23 62 40 67 159 4 90 8 111 23 119 9 6 17 16
17 24 0 10 -16 13 -65 13 -49 0 -65 -4 -65 -14 0 -8 7 -17 15 -20 12 -5 15
-27 15 -109 0 -86 -3 -104 -18 -118 -24 -22 -54 -21 -83 2 -22 17 -24 29 -27
114 -4 89 -2 96 18 107 38 20 17 35 -53 36 -52 1 -67 -2 -67 -12z"/>
<path d="M6850 4562 c0 -7 7 -15 15 -18 12 -5 15 -29 15 -130 0 -104 -2 -124
-15 -124 -8 0 -15 -7 -15 -15 0 -12 14 -15 64 -15 65 0 90 11 60 28 -8 5 -18
28 -21 51 -5 38 -4 43 12 39 11 -2 31 -27 47 -61 28 -57 29 -57 73 -57 33 0
45 4 45 15 0 8 -6 15 -13 15 -13 0 -67 83 -67 104 0 7 9 21 19 30 46 42 33
118 -24 141 -44 19 -195 16 -195 -3z m148 -28 c16 -11 22 -25 22 -53 0 -43
-14 -61 -47 -61 -21 0 -23 5 -23 49 0 51 7 81 19 81 4 0 17 -7 29 -16z"/>
<path d="M7150 4563 c0 -7 9 -17 20 -23 18 -10 20 -21 20 -108 0 -110 -6 -142
-26 -142 -8 0 -14 -7 -14 -15 0 -12 14 -15 70 -15 56 0 70 3 70 15 0 8 -7 15
-15 15 -13 0 -15 21 -15 125 0 104 2 125 15 125 8 0 15 9 15 19 0 17 -7 19
-70 18 -48 -1 -70 -6 -70 -14z"/>
<path d="M7340 4558 c0 -10 7 -18 15 -18 13 0 15 -21 15 -125 0 -104 -2 -125
-15 -125 -8 0 -15 -7 -15 -15 0 -23 225 -22 234 1 20 53 -10 88 -32 38 -11
-22 -17 -25 -55 -22 l-42 3 -3 53 -3 52 30 0 c21 0 31 -5 31 -15 0 -8 7 -15
15 -15 11 0 15 12 15 50 0 36 -4 50 -14 50 -7 0 -16 -9 -19 -21 -4 -15 -12
-20 -29 -17 -20 3 -23 9 -26 56 l-3 52 45 0 c36 0 46 -4 51 -20 12 -36 35 -24
35 19 l0 39 -115 -1 c-103 -1 -115 -3 -115 -19z"/>
<path d="M7665 4569 c-31 -19 -44 -41 -45 -74 0 -42 21 -68 85 -104 47 -27 55
-35 55 -61 0 -23 -5 -31 -26 -36 -38 -10 -74 10 -74 41 0 18 -5 25 -20 25 -17
0 -20 -7 -20 -45 0 -44 1 -44 42 -56 64 -17 118 -6 151 31 50 56 27 120 -56
155 -43 18 -59 38 -55 67 2 19 9 23 38 23 28 0 35 -4 40 -25 3 -14 13 -26 22
-28 11 -2 17 8 21 40 3 23 4 44 2 47 -11 11 -142 11 -160 0z"/>
<path d="M8138 4559 c-23 -17 -28 -28 -28 -65 0 -51 15 -70 83 -104 26 -13 49
-31 52 -41 10 -29 -12 -59 -43 -59 -36 0 -49 10 -53 40 -2 14 -11 26 -21 28
-22 4 -37 -76 -17 -89 26 -16 101 -22 140 -10 47 14 69 44 69 92 0 41 -17 61
-88 99 -36 19 -48 32 -50 52 -3 22 2 29 22 34 41 10 61 1 64 -29 2 -19 9 -27
23 -27 16 0 19 7 19 44 0 50 -10 56 -95 56 -35 -1 -58 -7 -77 -21z"/>
<path d="M8370 4558 c0 -10 7 -18 15 -18 13 0 15 -20 15 -124 0 -115 -1 -124
-20 -129 -11 -3 -20 -10 -20 -16 0 -7 39 -11 119 -11 l119 0 6 31 c9 46 8 49
-13 49 -13 0 -21 -8 -23 -22 -3 -20 -10 -23 -50 -26 l-48 -3 0 55 c0 56 0 56
30 56 20 0 30 -5 30 -15 0 -8 7 -15 15 -15 11 0 15 12 15 50 0 38 -4 50 -15
50 -8 0 -15 -6 -15 -14 0 -14 -21 -26 -46 -26 -10 0 -14 14 -14 55 l0 55 44 0
c36 0 45 -4 49 -21 9 -33 32 -17 32 22 l0 34 -112 0 c-102 1 -113 -1 -113 -17z"/>
<path d="M6150 3507 c0 -18 7 -27 25 -31 33 -8 36 -34 33 -256 -3 -181 -3
-185 -25 -195 -13 -5 -23 -19 -23 -30 0 -19 6 -20 100 -20 l100 0 0 27 c0 20
-4 26 -15 22 -30 -12 -37 44 -33 273 2 143 -1 224 -7 226 -5 2 -43 5 -82 6
-71 2 -73 1 -73 -22z"/>
<path d="M7813 3477 c-40 -23 -72 -44 -72 -47 0 -3 6 -13 14 -24 13 -18 15
-18 43 3 16 11 50 30 76 41 51 21 55 29 28 53 -16 15 -23 13 -89 -26z"/>
<path d="M5070 3497 c-30 -15 -38 -58 -15 -81 43 -43 117 1 96 58 -6 14 -15
26 -20 26 -5 0 -15 2 -23 5 -7 3 -24 -1 -38 -8z"/>
<path d="M5665 3502 c-30 -6 -45 -22 -45 -48 0 -54 76 -75 106 -29 29 45 -6
88 -61 77z"/>
<path d="M2665 3491 c-11 -5 -57 -7 -102 -7 -79 2 -83 1 -83 -20 0 -15 8 -24
25 -28 l25 -6 -2 -203 -3 -202 -22 1 c-18 0 -23 -5 -23 -25 l0 -26 110 0 110
0 0 27 c0 23 -4 27 -22 25 -22 -2 -23 2 -26 76 -3 73 -2 77 18 77 18 0 31 -19
68 -100 l47 -100 48 -2 c26 -1 57 -2 70 -2 17 -1 22 5 22 24 0 15 -5 24 -12
23 -13 -3 -45 42 -94 131 l-27 49 34 29 c62 55 69 149 16 209 -18 20 -46 35
-82 44 -62 17 -67 17 -95 6z m48 -63 c34 -18 46 -40 47 -81 0 -66 -38 -117
-89 -117 -20 0 -21 6 -21 105 0 99 1 105 21 105 11 0 30 -5 42 -12z"/>
<path d="M4695 3488 c-33 -5 -79 -7 -102 -4 -39 5 -43 4 -43 -17 0 -13 9 -26
23 -32 22 -10 22 -14 25 -199 2 -187 -1 -211 -31 -211 -7 0 -12 -11 -12 -24 0
-23 1 -23 123 -27 140 -5 194 5 235 44 46 43 56 119 22 166 -8 10 -35 28 -61
41 l-46 22 31 11 c68 24 95 135 45 185 -22 23 -115 59 -141 56 -4 -1 -35 -6
-68 -11z m118 -79 c34 -42 11 -119 -43 -137 -23 -8 -30 -17 -30 -36 0 -21 5
-26 24 -26 13 0 35 -9 50 -21 20 -16 26 -29 26 -60 0 -51 -13 -75 -51 -94 -36
-19 -65 -12 -73 18 -8 29 -7 336 1 366 5 20 10 22 42 17 20 -3 44 -15 54 -27z"/>
<path d="M780 3465 c0 -18 5 -25 19 -25 10 0 22 -7 25 -16 8 -21 -13 -350 -24
-380 -6 -14 -18 -24 -30 -24 -14 0 -20 -7 -20 -23 0 -22 3 -23 95 -22 l95 0 0
27 c0 21 -4 25 -20 21 -30 -8 -33 13 -24 174 l9 148 22 -60 c12 -33 41 -115
64 -182 l43 -123 35 0 36 0 58 168 c32 92 61 173 66 180 4 7 11 -54 15 -137 4
-83 4 -156 1 -161 -3 -6 -15 -10 -26 -10 -13 0 -19 -7 -19 -22 0 -22 3 -23
105 -23 102 0 105 0 105 22 0 16 -6 23 -20 23 -12 0 -24 9 -29 23 -9 25 -31
265 -31 345 0 49 1 52 26 52 21 0 25 4 22 23 -3 21 -7 22 -92 22 l-90 0 -57
-175 c-32 -96 -60 -168 -63 -160 -31 92 -96 305 -96 315 0 19 -20 24 -114 24
-85 0 -86 0 -86 -24z"/>
<path d="M3975 3440 c-64 -26 -83 -92 -48 -166 18 -36 17 -36 -7 -56 -57 -46
-75 -113 -48 -173 29 -65 155 -93 262 -60 38 12 60 14 68 8 7 -6 46 -13 86
-16 67 -5 72 -4 72 14 0 32 -1 34 -13 32 -7 -2 -29 12 -51 30 -37 32 -38 33
-27 72 6 22 11 52 11 68 0 22 4 27 25 27 19 0 25 5 25 23 0 21 -4 22 -83 22
-77 0 -82 -2 -85 -23 -3 -17 2 -22 17 -22 18 0 21 -6 21 -42 l0 -41 -27 24
c-102 89 -146 151 -141 197 3 24 7 27 43 27 37 0 41 -3 50 -33 7 -25 14 -32
30 -30 17 3 20 12 23 59 3 56 3 56 -29 63 -44 8 -150 6 -174 -4z m99 -328 c50
-46 55 -57 30 -66 -38 -15 -83 -6 -103 20 -23 29 -27 74 -9 92 14 14 23 9 82
-46z"/>
<path d="M1907 3381 c-18 -26 -36 -41 -57 -46 -25 -5 -31 -11 -28 -28 2 -14
11 -23 26 -25 21 -3 22 -7 22 -118 0 -127 12 -168 56 -184 37 -14 81 -12 115
6 43 22 35 49 -13 49 -20 0 -40 4 -45 8 -4 5 -10 60 -11 122 l-4 114 44 3 c38
3 43 6 43 27 0 22 -4 25 -40 25 -40 1 -40 1 -43 44 -4 55 -30 57 -65 3z"/>
<path d="M6835 3379 c-16 -24 -35 -40 -55 -44 -23 -5 -30 -12 -30 -31 0 -19 5
-24 24 -24 l24 0 4 -131 c3 -129 3 -131 31 -155 33 -28 92 -32 137 -9 48 25
32 62 -21 48 -39 -10 -49 19 -49 139 l0 108 40 0 c33 0 40 3 40 20 0 31 -3 33
-40 34 -34 1 -35 2 -38 43 -3 34 -7 41 -23 40 -10 -1 -30 -18 -44 -38z"/>
<path d="M1557 3329 c-88 -21 -121 -68 -121 -174 -1 -124 56 -185 173 -185 86
0 128 22 159 80 31 62 31 163 -1 211 -45 66 -117 90 -210 68z m98 -72 c22 -34
28 -79 20 -143 -11 -92 -67 -125 -105 -61 -25 40 -28 153 -5 197 20 38 67 42
90 7z"/>
<path d="M2198 3327 c-46 -15 -85 -49 -99 -85 -18 -45 -13 -148 9 -190 31 -60
72 -82 157 -82 83 0 125 21 156 80 25 45 26 158 3 206 -30 63 -144 99 -226 71z
m108 -68 c27 -30 32 -151 7 -199 -24 -47 -64 -53 -90 -14 -26 41 -26 183 1
213 24 27 58 27 82 0z"/>
<path d="M3020 3318 c-64 -34 -84 -66 -88 -148 -5 -90 21 -151 79 -180 75 -39
234 -15 227 34 -3 22 -4 22 -88 10 -56 -7 -87 14 -99 69 l-9 37 99 0 c117 0
126 7 108 88 -13 63 -41 89 -108 102 -71 13 -70 13 -121 -12z m101 -49 c13
-13 19 -30 17 -47 -3 -25 -7 -27 -50 -30 l-48 -3 7 33 c6 33 29 68 45 68 4 0
17 -9 29 -21z"/>
<path d="M3280 3315 c0 -18 7 -26 24 -31 31 -8 36 -34 36 -204 0 -165 -7 -230
-26 -230 -8 0 -14 -9 -14 -20 0 -19 7 -20 100 -20 l100 0 0 26 c0 21 -4 24
-19 19 -26 -8 -41 20 -41 74 l0 41 53 0 c66 0 135 33 159 76 39 68 35 192 -8
243 -47 56 -143 62 -195 10 -25 -25 -29 -24 -29 5 0 29 -16 36 -86 36 -51 0
-54 -1 -54 -25z m264 -77 c22 -31 22 -146 0 -176 -13 -19 -24 -22 -57 -20
l-42 3 0 86 c0 71 3 91 19 108 25 27 61 27 80 -1z"/>
<path d="M4990 3316 c0 -17 7 -27 23 -32 12 -4 25 -12 29 -18 4 -6 8 -59 8
-117 0 -81 -3 -109 -15 -119 -8 -6 -19 -9 -25 -5 -6 4 -10 -5 -10 -22 l0 -28
100 0 c73 0 100 3 102 13 3 33 2 37 -16 37 -30 0 -39 53 -33 186 l5 117 -30 6
c-17 3 -55 6 -84 6 -51 0 -54 -2 -54 -24z"/>
<path d="M5325 3318 c-74 -44 -105 -122 -85 -215 14 -60 32 -89 73 -113 59
-36 206 -19 223 25 11 28 -9 37 -57 25 -60 -15 -95 -1 -114 45 -30 71 -9 186
37 201 35 11 68 -15 68 -53 0 -30 3 -33 29 -33 25 0 29 4 35 38 11 66 8 91
-11 90 -10 0 -49 3 -88 6 -62 6 -74 4 -110 -16z"/>
<path d="M5570 3316 c0 -19 7 -27 25 -32 32 -8 36 -27 33 -149 -3 -93 -5 -101
-25 -110 -13 -5 -23 -19 -23 -30 0 -19 6 -20 100 -20 73 0 100 3 102 13 3 33
2 37 -16 37 -30 0 -38 46 -32 182 4 90 2 122 -7 126 -6 2 -45 5 -84 6 -72 2
-73 2 -73 -23z"/>
<path d="M5910 3318 c-66 -34 -84 -66 -88 -151 -6 -131 52 -197 171 -197 56 0
137 29 137 49 0 22 -27 30 -68 20 -80 -18 -117 8 -128 92 -13 95 33 171 90
150 21 -9 26 -17 26 -46 0 -33 2 -35 35 -35 l35 0 0 63 c0 52 -3 63 -17 65
-119 13 -150 11 -193 -10z"/>
<path d="M6521 3330 c-78 -19 -121 -81 -121 -176 0 -76 30 -139 80 -165 73
-40 235 -14 228 36 -2 15 -9 19 -28 17 -87 -11 -122 -7 -141 17 -10 13 -19 36
-19 52 l0 29 99 0 c94 0 99 1 104 23 7 29 -7 102 -23 123 -21 24 -86 54 -117
53 -15 -1 -43 -5 -62 -9z m85 -85 c11 -42 -1 -55 -50 -55 l-45 0 5 33 c8 43
39 70 65 57 10 -6 22 -22 25 -35z"/>
<path d="M7115 3321 c-84 -38 -118 -115 -96 -214 22 -99 70 -137 173 -137 74
1 133 25 133 55 0 15 -6 19 -25 17 -89 -9 -120 -6 -139 13 -11 11 -23 35 -27
52 l-6 32 103 3 104 3 0 57 c0 49 -5 61 -29 87 -26 27 -91 52 -133 50 -10 0
-36 -9 -58 -18z m79 -37 c18 -7 42 -72 30 -84 -16 -16 -85 -19 -91 -4 -7 20 4
60 23 78 18 18 17 18 38 10z"/>
<path d="M7370 3316 c0 -18 8 -27 30 -35 l31 -10 -3 -118 c-3 -111 -4 -119
-25 -128 -13 -5 -23 -19 -23 -30 0 -19 6 -20 110 -20 l110 0 0 27 c0 23 -4 26
-27 25 -23 -2 -28 3 -36 38 -15 68 -4 151 23 180 33 35 48 32 52 -12 3 -32 7
-38 29 -41 25 -3 26 0 32 50 13 101 14 99 -44 94 -48 -4 -75 -17 -92 -43 -12
-19 -23 -16 -24 8 -3 30 -6 32 -78 36 -63 4 -65 3 -65 -21z"/>
<path d="M7710 3315 c0 -18 7 -26 24 -31 16 -4 26 -15 30 -36 8 -39 8 -142 0
-190 -6 -32 -11 -38 -31 -38 -19 0 -24 -4 -21 -22 3 -20 8 -22 106 -23 l102
-1 0 29 c0 16 -5 27 -12 26 -39 -5 -39 -3 -37 148 2 169 7 161 -98 162 -61 1
-63 0 -63 -24z"/>
<path d="M8017 3326 c-42 -8 -48 -12 -43 -30 3 -12 6 -38 6 -59 0 -36 2 -38
28 -35 22 2 28 8 30 34 3 28 8 33 37 38 19 4 43 2 54 -3 21 -12 38 -68 25 -80
-5 -4 -40 -13 -79 -20 -91 -16 -115 -37 -115 -102 0 -40 4 -51 31 -73 38 -32
102 -35 139 -6 30 23 40 25 40 6 0 -17 121 -29 132 -12 14 19 4 41 -20 44 -21
3 -22 7 -22 103 0 114 -14 161 -57 182 -36 19 -125 25 -186 13z m140 -222 c-8
-45 -23 -64 -53 -64 -17 0 -28 8 -34 25 -17 44 10 73 69 74 22 1 23 -2 18 -35z"/>
<path d="M3612 2659 c-40 -20 -82 -82 -82 -121 0 -65 53 -110 103 -87 53 24
58 113 7 126 -27 7 -25 28 5 51 49 39 26 60 -33 31z"/>
<path d="M3792 2659 c-74 -37 -101 -150 -46 -197 63 -54 146 27 98 96 -8 12
-22 22 -30 22 -22 0 -16 27 11 48 49 39 26 60 -33 31z"/>
<path d="M5162 2647 c-33 -35 -30 -84 8 -105 16 -9 30 -20 30 -23 0 -3 -11
-16 -25 -29 -34 -32 -33 -54 1 -46 63 16 104 73 104 143 0 74 -71 110 -118 60z"/>
<path d="M5341 2644 c-12 -15 -21 -37 -21 -50 0 -24 31 -64 50 -64 18 0 11
-20 -15 -44 -48 -45 -18 -63 43 -26 44 27 75 97 66 145 -12 65 -85 88 -123 39z"/>
<path d="M3937 2613 c-4 -3 -7 -19 -7 -33 0 -22 6 -29 29 -33 18 -4 31 -14 35
-29 8 -30 8 -406 0 -446 -5 -24 -12 -32 -33 -34 -22 -2 -26 -8 -26 -33 l0 -30
195 0 c184 0 198 2 243 24 26 13 65 43 87 68 55 63 75 128 75 239 -1 82 -4 98
-33 157 -35 71 -80 113 -150 140 -34 14 -78 17 -226 17 -100 0 -186 -3 -189
-7z m336 -77 c43 -18 84 -67 98 -119 6 -23 12 -81 12 -128 -1 -71 -5 -97 -25
-141 -37 -79 -86 -105 -190 -99 l-28 1 0 244 c0 186 3 246 13 249 24 10 88 7
120 -7z"/>
<path d="M4555 2608 c-2 -7 -6 -43 -8 -80 l-5 -68 33 0 c31 0 34 3 40 40 l7
40 58 0 c44 0 59 -4 64 -16 8 -20 8 -432 0 -461 -4 -14 -15 -23 -33 -25 -22
-2 -26 -8 -26 -33 l0 -30 135 0 135 0 3 33 c3 30 1 32 -26 32 -25 0 -30 5 -36
31 -8 40 -8 432 0 453 5 12 20 16 64 16 61 0 69 -8 70 -65 0 -18 5 -20 36 -17
36 4 36 5 30 41 -3 20 -6 55 -6 79 l0 42 -265 0 c-204 0 -267 -3 -270 -12z"/>
</g>
</svg>
